<svg class="icon" viewBox="0 0 2092 1024" xmlns="http://www.w3.org/2000/svg" width="65.375" height="32"><path d="m443.146 274.04 3.737-30.926 6.185-51.887 12.5-108.242H131.952l-12.457 108.242h214.078l-6.185 51.887-75.984 181.133-26.158-146.9H105.75l69.713 328.033L-.043 1023.957h93.337l117.004-251.79 53.52 251.79h93.38L284.95 613.111zm348.607 8.849H672.215L651.039 464.02l-272.623 559.936h104.59l210.47-409.729 146.9 409.729h104.59l-174.26-561.052zM723.286.172H591.29L468.016 351.356h90.889l72.247-154.631h284.95l-52.274 154.63h92.134l72.204-154.63 12.457-108.199H682.094zm1053.122 850.47 84.66-712.333h111.979l-58.502 494.733h-64.73l16.15 108.284h143.163l83.414-711.302H1757.51l-95.871 820.403zM1645.702 696.01l9.965-94.97-138.18 34.363 58.502-494.776 143.163-33.117 13.702-104.934-144.408 30.926h-117.004L1384.29 768zm-250.201-462.733L1356.843 17.91h-144.365l89.686 215.367zM1299.63 831.87l62.196-514.878h-215.367L1132.8 424.118h92.091l-48.58 408.655-115.973 188.993h93.38l82.17-106.008 119.495 85.047h623.677l43.555-107.124h-634.588z" fill="#409EFF"/></svg>