<svg class="icon" viewBox="0 0 1024 1024" xmlns="http://www.w3.org/2000/svg" width="32" height="32"><path d="M511.957 0C794.581.341 1023.573 229.376 1024 512c0 282.752-229.205 512-512 512C229.248 1024 0 794.795 0 512 0 229.333 229.163 0 511.957 0zm282.326 311.296a42.453 42.453 0 0 0-59.008-.853L425.813 623.445l-136.874-140.8a42.368 42.368 0 1 0-60.246 59.008L395.605 713.26l.299.298a32 32 0 0 0 9.173 6.4c1.622.982 2.987 2.262 4.694 3.03a41.813 41.813 0 0 0 31.658.17 39.339 39.339 0 0 0 4.523-2.986 35.84 35.84 0 0 0 9.173-6.016c.299 0 0-.086.299-.342l.299-.256 339.712-343.21a42.453 42.453 0 0 0-1.195-59.008z" fill="#52BF8A"/></svg>