<svg class="icon" viewBox="0 0 1024 1024" xmlns="http://www.w3.org/2000/svg" width="32" height="32"><path d="M412.719 248.087c47.709 49.013 95.418 97.885 143.173 146.525 34.91 35.654 69.353 71.634 104.495 106.776 5.4 5.306 13.917 10.519 20.899 10.426 12.753 0 18.804-15.546 12.753-28.858-15.546-34.258-32.023-68.05-46.824-102.447-4.655-10.52-7.029-21.923-7.075-33.513a31.977 31.977 0 0 1 14.755-26.67 30.487 30.487 0 0 1 29.975-1.536c8.331 3.723 15.453 9.774 20.62 17.454a8896.047 8896.047 0 0 1 114.175 210.06c13.964 26.764 18.572 57.158 18.153 88.064-1.582 61.72-27.927 112.64-65.955 158.58-32.814 39.47-70.376 71.68-120.925 84.573-54.318 13.964-106.496 5.865-156.765-17.78a387.817 387.817 0 0 1-112.128-81.082c-60.742-61.906-121.484-123.95-182.04-186.089-9.634-9.774-17.035-20.2-12.38-35.793 8.843-28.905 37.236-37.376 58.787-16.105 29.416 29.184 58.135 59.252 87.18 88.902 3.257 3.258 6.516 8.704 10.146 8.704 7.727.791 18.246 1.722 23.087-2.607 4.235-3.723 3.304-14.894 2.187-22.435-.558-4.328-6.05-7.82-9.541-11.496-50.223-51.62-100.585-102.866-150.622-154.624-19.735-20.108-12.94-51.805 12.428-58.973 16.663-4.655 29.79 2.187 41.705 14.429 45.707 47.476 91.88 94.673 137.867 141.917 3.072 3.398 6.424 6.563 9.961 9.495a16.756 16.756 0 0 0 23.738-1.164 17.687 17.687 0 0 0 2.328-23.97 83.968 83.968 0 0 0-11.73-13.592 139028.858 139028.858 0 0 1-182.644-187.345c-22.11-22.575-15.08-54.552 13.498-62.557 14.057-4.003 24.902 2.606 34.257 12.101 33.187 33.513 66.048 67.026 98.91 100.632 29.323 30.068 58.46 60.37 87.784 90.298 3.817 3.91 7.913 9.542 12.521 10.24a30.734 30.734 0 0 0 20.806-2.932 15.313 15.313 0 0 0 3.165-22.342 93.556 93.556 0 0 0-10.659-12.568c-47.663-49.012-95.418-97.745-142.895-146.757-20.014-20.667-14.242-51.48 11.125-59.485 16.57-5.214 29.789 1.21 41.705 13.498zm165.701-86.202 4.19.28a268.474 268.474 0 0 1 133.771 62.743 23.273 23.273 0 0 1-30.534 35.095A221.929 221.929 0 0 0 575.21 208.15a23.273 23.273 0 0 1 3.211-46.266zm3.259-82.339 4.189.186a350.86 350.86 0 0 1 219.88 118.924 23.273 23.273 0 0 1-35.235 30.394A304.314 304.314 0 0 0 579.77 125.86a23.273 23.273 0 0 1 1.862-46.313z" fill="#247EF8"/></svg>