<?xml version="1.0" standalone="no"?><!DOCTYPE svg PUBLIC "-//W3C//DTD SVG 1.1//EN" "http://www.w3.org/Graphics/SVG/1.1/DTD/svg11.dtd"><svg t="1737884247487" class="icon" viewBox="0 0 1024 1024" version="1.1" xmlns="http://www.w3.org/2000/svg" p-id="64137" xmlns:xlink="http://www.w3.org/1999/xlink" width="32" height="32"><path d="M412.718545 248.087273c47.709091 49.012364 95.418182 97.885091 143.173819 146.525091 34.909091 35.653818 69.352727 71.633455 104.494545 106.775272 5.399273 5.306182 13.917091 10.519273 20.898909 10.426182 12.753455 0 18.804364-15.546182 12.753455-28.858182-15.546182-34.257455-32.023273-68.049455-46.824728-102.446545-4.654545-10.519273-7.028364-21.922909-7.074909-33.512727a31.976727 31.976727 0 0 1 14.754909-26.670546 30.487273 30.487273 0 0 1 29.975273-1.536c8.331636 3.723636 15.453091 9.774545 20.619637 17.454546a8896.046545 8896.046545 0 0 1 114.176 210.059636c13.963636 26.763636 18.571636 57.157818 18.152727 88.064-1.582545 61.719273-27.927273 112.64-65.954909 158.580364-32.814545 39.470545-70.376727 71.68-120.925091 84.573091-54.318545 13.963636-106.496 5.864727-156.765091-17.780364a387.816727 387.816727 0 0 1-112.128-81.082182c-60.741818-61.905455-121.483636-123.950545-182.039273-186.088727-9.634909-9.774545-17.035636-20.200727-12.381091-35.793455 8.843636-28.904727 37.236364-37.376 58.786909-16.104727 29.416727 29.184 58.135273 59.252364 87.179637 88.901818 3.258182 3.258182 6.516364 8.704 10.146909 8.704 7.726545 0.791273 18.245818 1.722182 23.086545-2.606545 4.235636-3.723636 3.304727-14.894545 2.187637-22.434909-0.558545-4.328727-6.050909-7.819636-9.541819-11.496728-50.222545-51.618909-100.584727-102.865455-150.62109-154.624-19.735273-20.107636-12.939636-51.805091 12.427636-58.973091 16.663273-4.654545 29.789091 2.187636 41.704727 14.429091 45.707636 47.476364 91.880727 94.673455 137.867637 141.917091 3.072 3.397818 6.423273 6.562909 9.960727 9.495273a16.756364 16.756364 0 0 0 23.738182-1.163636 17.687273 17.687273 0 0 0 2.327272-23.970909 83.968 83.968 0 0 0-11.729454-13.591273C364.218182 452.887273 303.336727 390.423273 242.501818 327.912727c-22.109091-22.574545-15.080727-54.551273 13.498182-62.557091 14.056727-4.002909 24.901818 2.606545 34.257455 12.101819 33.186909 33.512727 66.048 67.025455 98.90909 100.631272 29.323636 30.068364 58.461091 60.369455 87.784728 90.298182 3.816727 3.909818 7.912727 9.541818 12.520727 10.24 7.074909 1.489455 14.429091 0.465455 20.805818-2.932364a15.313455 15.313455 0 0 0 3.165091-22.341818 93.556364 93.556364 0 0 0-10.658909-12.567272c-47.662545-49.012364-95.418182-97.745455-142.894545-146.757819-20.014545-20.666182-14.242909-51.479273 11.124363-59.485091 16.570182-5.213091 29.789091 1.210182 41.704727 13.498182z m165.701819-86.202182l4.189091 0.279273a268.474182 268.474182 0 0 1 133.771636 62.743272 23.272727 23.272727 0 0 1-30.533818 35.095273 221.928727 221.928727 0 0 0-110.638546-51.851636 23.272727 23.272727 0 0 1 3.211637-46.266182z m3.258181-82.338909l4.189091 0.186182a350.859636 350.859636 0 0 1 219.880728 118.923636 23.272727 23.272727 0 0 1-35.234909 30.394182 304.314182 304.314182 0 0 0-190.743273-103.191273 23.272727 23.272727 0 0 1 1.861818-46.312727z" fill="#247EF8" p-id="64138"></path></svg>