<?xml version="1.0" standalone="no"?><!DOCTYPE svg PUBLIC "-//W3C//DTD SVG 1.1//EN" "http://www.w3.org/Graphics/SVG/1.1/DTD/svg11.dtd"><svg t="1737884179596" class="icon" viewBox="0 0 2092 1024" version="1.1" xmlns="http://www.w3.org/2000/svg" p-id="61081" xmlns:xlink="http://www.w3.org/1999/xlink" width="65.375" height="32"><path d="M443.146309 274.040268l3.736912-30.926174 6.185235-51.887248 12.499329-108.241611H131.951678l-12.456376 108.241611h214.077852L327.387919 243.114094 251.404027 424.24698l-26.158389-146.899329H105.750336l69.712751 328.032215-175.50604 418.577181h93.336913l117.004027-251.790604 53.519463 251.790604h93.379865l-72.246979-410.845638z m348.606711 8.848323H672.214765l-21.175839 181.132886L378.416107 1023.957047h104.590604l210.469799-409.728859 146.899329 409.728859H944.966443l-174.260403-561.052349zM723.285906 0.171812h-131.994631l-123.275168 351.183893h90.888591l72.24698-154.630873h284.950335l-52.273825 154.630873h92.134228l72.204027-154.630873 12.456376-108.198658H682.09396z m1053.122148 850.469799L1861.068456 138.308725h111.978524l-58.502014 494.732886h-64.730201l16.150336 108.284563h143.162416L2092.542282 30.024161h-335.033557l-95.871141 820.402685z m-130.706041-154.630873l9.965101-94.969127-138.179866 34.362416 58.502014-494.775839 143.162416-33.116779 13.702013-104.934228-144.408053 30.926175h-117.004027l-87.151678 734.496644zM1395.500671 233.277852l-38.657718-215.366443h-144.365101l89.685906 215.366443z m-95.871141 598.593289L1361.825503 316.993289h-215.366443l-13.65906 107.124832h92.091275l-48.579866 408.655033-115.973154 188.993289h93.379866l82.169127-106.008054 119.495302 85.04698h623.677853l43.554362-107.124832H1388.026846z" fill="#409EFF" p-id="61082"></path></svg>