<?xml version="1.0" standalone="no"?><!DOCTYPE svg PUBLIC "-//W3C//DTD SVG 1.1//EN" "http://www.w3.org/Graphics/SVG/1.1/DTD/svg11.dtd"><svg t="1738224708701" class="icon" viewBox="0 0 1024 1024" version="1.1" xmlns="http://www.w3.org/2000/svg" p-id="6733" xmlns:xlink="http://www.w3.org/1999/xlink" width="32" height="32"><path d="M905.846154 393.846154c0-131.859692 0-245.169231 0-275.692308 0-78.769231-40.014769-78.769231-78.769231-78.769231-78.139077 0-83.692308 315.076923-512 315.076923L118.153846 354.461538c-65.220923 0-118.153846 52.932923-118.153846 118.153846l0 78.769231c0 65.220923 52.932923 118.153846 118.153846 118.153846l196.923077 0c430.788923 0 432.482462 315.076923 512 315.076923 0.630154 0 1.220923 0 1.851077 0C868.864 984.615385 905.846154 983.985231 905.846154 905.846154c0-30.72 0-143.950769 0-275.692308 65.220923 0 118.153846-52.932923 118.153846-118.153846C1024 446.739692 971.067077 393.846154 905.846154 393.846154zM118.153846 512c0-78.257231 58.564923-78.769231 58.564923-78.769231L315.076923 433.230769l0 78.769231L118.153846 512zM827.076923 870.478769c-55.059692-92.711385-154.348308-250.998154-433.230769-276.283077l0-164.430769c277.385846-25.324308 377.619692-183.256615 433.230769-276.086154L827.076923 870.478769zM315.076923 984.615385 236.307692 984.615385c-21.700923 0-43.480615-17.683692-48.482462-39.384615l-64-236.307692L312.32 708.923077c0 0-36.509538 109.449846 13.272615 149.307077C397.469538 915.771077 378.683077 986.545231 315.076923 984.615385zM472.615385 472.615385c152.260923 0 275.692308-115.830154 275.692308-115.830154l0 120.123077c0 0-124.258462 35.131077-275.692308 35.131077L472.615385 472.615385z" fill="#333333" p-id="6734"></path></svg>