<?xml version="1.0" standalone="no"?><!DOCTYPE svg PUBLIC "-//W3C//DTD SVG 1.1//EN" "http://www.w3.org/Graphics/SVG/1.1/DTD/svg11.dtd"><svg t="1737886696907" class="icon" viewBox="0 0 1024 1024" version="1.1" xmlns="http://www.w3.org/2000/svg" p-id="7255" xmlns:xlink="http://www.w3.org/1999/xlink" width="32" height="32"><path d="M512 0c282.752 0 512 229.248 512 512s-229.248 512-512 512S0 794.752 0 512 229.248 0 512 0zM368.597333 310.656A40.96 40.96 0 1 0 310.656 368.64l143.445333 143.36-143.445333 143.445333a40.96 40.96 0 1 0 57.941333 57.941334L512 569.898667l143.402667 143.445333a40.96 40.96 0 1 0 57.941333-57.941333L569.984 512l143.36-143.402667a40.96 40.96 0 1 0-57.941333-57.941333l-143.36 143.36z" fill="#FF3325" p-id="7256"></path></svg>