<?xml version="1.0" standalone="no"?><!DOCTYPE svg PUBLIC "-//W3C//DTD SVG 1.1//EN" "http://www.w3.org/Graphics/SVG/1.1/DTD/svg11.dtd"><svg t="1737886651437" class="icon" viewBox="0 0 1024 1024" version="1.1" xmlns="http://www.w3.org/2000/svg" p-id="5168" xmlns:xlink="http://www.w3.org/1999/xlink" width="32" height="32"><path d="M511.957333 0C794.581333 0.341333 1023.573333 229.376 1024 512c0 282.752-229.205333 512-512 512-282.752 0-512-229.205333-512-512C0 229.333333 229.162667 0 511.957333 0z m282.325334 311.296a42.453333 42.453333 0 0 0-59.008-0.853333L425.813333 623.445333l-136.874666-140.8a42.368 42.368 0 1 0-60.245334 59.008l166.912 171.605334 0.298667 0.298666a32 32 0 0 0 9.173333 6.4c1.621333 0.981333 2.986667 2.261333 4.693334 3.029334a41.813333 41.813333 0 0 0 31.658666 0.170666 39.338667 39.338667 0 0 0 4.522667-2.986666 35.84 35.84 0 0 0 9.173333-6.016c0.298667 0 0-0.085333 0.298667-0.341334l0.298667-0.256 339.712-343.210666a42.453333 42.453333 0 0 0-1.194667-59.008z" fill="#52BF8A" p-id="5169"></path></svg>